<mxfile host="app.diagrams.net" modified="2023-05-28T11:44:25.450Z" agent="Mozilla/5.0 (Windows NT 10.0; Win64; x64) AppleWebKit/537.36 (KHTML, like Gecko) Chrome/112.0.0.0 Safari/537.36 OPR/98.0.0.0 (Edition Yx GX)" etag="9XoQSIdKcepBwwqVeiw9" version="21.3.5" type="device">
  <diagram id="C5RBs43oDa-KdzZeNtuy" name="Page-1">
    <mxGraphModel dx="2033" dy="797" grid="1" gridSize="10" guides="1" tooltips="1" connect="1" arrows="1" fold="1" page="1" pageScale="1" pageWidth="827" pageHeight="1169" math="0" shadow="0">
      <root>
        <mxCell id="WIyWlLk6GJQsqaUBKTNV-0" />
        <mxCell id="WIyWlLk6GJQsqaUBKTNV-1" parent="WIyWlLk6GJQsqaUBKTNV-0" />
        <mxCell id="_wpVd92IGkmk1BSt9OJt-2" value="&lt;font style=&quot;font-size: 24px;&quot;&gt;Animals&lt;br&gt;friend_of_human&lt;/font&gt;" style="rounded=1;whiteSpace=wrap;html=1;" vertex="1" parent="WIyWlLk6GJQsqaUBKTNV-1">
          <mxGeometry x="286" y="30" width="256" height="140" as="geometry" />
        </mxCell>
        <mxCell id="_wpVd92IGkmk1BSt9OJt-16" style="edgeStyle=orthogonalEdgeStyle;rounded=0;orthogonalLoop=1;jettySize=auto;html=1;entryX=0.5;entryY=1;entryDx=0;entryDy=0;" edge="1" parent="WIyWlLk6GJQsqaUBKTNV-1" source="_wpVd92IGkmk1BSt9OJt-3" target="_wpVd92IGkmk1BSt9OJt-2">
          <mxGeometry relative="1" as="geometry" />
        </mxCell>
        <mxCell id="_wpVd92IGkmk1BSt9OJt-3" value="&lt;font style=&quot;font-size: 18px;&quot;&gt;pet_animals&lt;/font&gt;" style="rounded=1;whiteSpace=wrap;html=1;" vertex="1" parent="WIyWlLk6GJQsqaUBKTNV-1">
          <mxGeometry x="86" y="210" width="200" height="100" as="geometry" />
        </mxCell>
        <mxCell id="_wpVd92IGkmk1BSt9OJt-17" style="edgeStyle=orthogonalEdgeStyle;rounded=0;orthogonalLoop=1;jettySize=auto;html=1;entryX=0.5;entryY=1;entryDx=0;entryDy=0;" edge="1" parent="WIyWlLk6GJQsqaUBKTNV-1" source="_wpVd92IGkmk1BSt9OJt-5" target="_wpVd92IGkmk1BSt9OJt-2">
          <mxGeometry relative="1" as="geometry" />
        </mxCell>
        <mxCell id="_wpVd92IGkmk1BSt9OJt-5" value="&lt;font style=&quot;font-size: 18px;&quot;&gt;pack_animals&lt;/font&gt;" style="rounded=1;whiteSpace=wrap;html=1;" vertex="1" parent="WIyWlLk6GJQsqaUBKTNV-1">
          <mxGeometry x="542" y="210" width="200" height="100" as="geometry" />
        </mxCell>
        <mxCell id="_wpVd92IGkmk1BSt9OJt-13" style="edgeStyle=orthogonalEdgeStyle;rounded=0;orthogonalLoop=1;jettySize=auto;html=1;entryX=0.5;entryY=1;entryDx=0;entryDy=0;" edge="1" parent="WIyWlLk6GJQsqaUBKTNV-1" source="_wpVd92IGkmk1BSt9OJt-6" target="_wpVd92IGkmk1BSt9OJt-3">
          <mxGeometry relative="1" as="geometry" />
        </mxCell>
        <mxCell id="_wpVd92IGkmk1BSt9OJt-6" value="Dogs" style="rounded=1;whiteSpace=wrap;html=1;" vertex="1" parent="WIyWlLk6GJQsqaUBKTNV-1">
          <mxGeometry y="390" width="110" height="70" as="geometry" />
        </mxCell>
        <mxCell id="_wpVd92IGkmk1BSt9OJt-14" style="edgeStyle=orthogonalEdgeStyle;rounded=0;orthogonalLoop=1;jettySize=auto;html=1;entryX=0.5;entryY=1;entryDx=0;entryDy=0;" edge="1" parent="WIyWlLk6GJQsqaUBKTNV-1" source="_wpVd92IGkmk1BSt9OJt-7" target="_wpVd92IGkmk1BSt9OJt-3">
          <mxGeometry relative="1" as="geometry">
            <mxPoint x="186" y="350" as="targetPoint" />
          </mxGeometry>
        </mxCell>
        <mxCell id="_wpVd92IGkmk1BSt9OJt-7" value="Cats" style="rounded=1;whiteSpace=wrap;html=1;" vertex="1" parent="WIyWlLk6GJQsqaUBKTNV-1">
          <mxGeometry x="131" y="390" width="110" height="70" as="geometry" />
        </mxCell>
        <mxCell id="_wpVd92IGkmk1BSt9OJt-15" style="edgeStyle=orthogonalEdgeStyle;rounded=0;orthogonalLoop=1;jettySize=auto;html=1;entryX=0.5;entryY=1;entryDx=0;entryDy=0;" edge="1" parent="WIyWlLk6GJQsqaUBKTNV-1" source="_wpVd92IGkmk1BSt9OJt-8" target="_wpVd92IGkmk1BSt9OJt-3">
          <mxGeometry relative="1" as="geometry" />
        </mxCell>
        <mxCell id="_wpVd92IGkmk1BSt9OJt-8" value="Humsters" style="rounded=1;whiteSpace=wrap;html=1;" vertex="1" parent="WIyWlLk6GJQsqaUBKTNV-1">
          <mxGeometry x="260" y="390" width="110" height="70" as="geometry" />
        </mxCell>
        <mxCell id="_wpVd92IGkmk1BSt9OJt-21" style="edgeStyle=orthogonalEdgeStyle;rounded=0;orthogonalLoop=1;jettySize=auto;html=1;entryX=0.5;entryY=1;entryDx=0;entryDy=0;" edge="1" parent="WIyWlLk6GJQsqaUBKTNV-1" source="_wpVd92IGkmk1BSt9OJt-9" target="_wpVd92IGkmk1BSt9OJt-5">
          <mxGeometry relative="1" as="geometry" />
        </mxCell>
        <mxCell id="_wpVd92IGkmk1BSt9OJt-9" value="Donkeys" style="rounded=1;whiteSpace=wrap;html=1;" vertex="1" parent="WIyWlLk6GJQsqaUBKTNV-1">
          <mxGeometry x="717" y="390" width="110" height="70" as="geometry" />
        </mxCell>
        <mxCell id="_wpVd92IGkmk1BSt9OJt-20" style="edgeStyle=orthogonalEdgeStyle;rounded=0;orthogonalLoop=1;jettySize=auto;html=1;" edge="1" parent="WIyWlLk6GJQsqaUBKTNV-1" source="_wpVd92IGkmk1BSt9OJt-10">
          <mxGeometry relative="1" as="geometry">
            <mxPoint x="642" y="310" as="targetPoint" />
          </mxGeometry>
        </mxCell>
        <mxCell id="_wpVd92IGkmk1BSt9OJt-10" value="Camels" style="rounded=1;whiteSpace=wrap;html=1;" vertex="1" parent="WIyWlLk6GJQsqaUBKTNV-1">
          <mxGeometry x="587" y="390" width="110" height="70" as="geometry" />
        </mxCell>
        <mxCell id="_wpVd92IGkmk1BSt9OJt-18" style="edgeStyle=orthogonalEdgeStyle;rounded=0;orthogonalLoop=1;jettySize=auto;html=1;" edge="1" parent="WIyWlLk6GJQsqaUBKTNV-1" source="_wpVd92IGkmk1BSt9OJt-11" target="_wpVd92IGkmk1BSt9OJt-5">
          <mxGeometry relative="1" as="geometry" />
        </mxCell>
        <mxCell id="_wpVd92IGkmk1BSt9OJt-11" value="Horses" style="rounded=1;whiteSpace=wrap;html=1;" vertex="1" parent="WIyWlLk6GJQsqaUBKTNV-1">
          <mxGeometry x="460" y="390" width="110" height="70" as="geometry" />
        </mxCell>
      </root>
    </mxGraphModel>
  </diagram>
</mxfile>
